<?xml version="1.0" standalone="no"?>
<!DOCTYPE svg PUBLIC "-//W3C//DTD SVG 20010904//EN"
 "http://www.w3.org/TR/2001/REC-SVG-20010904/DTD/svg10.dtd">
<svg version="1.0" xmlns="http://www.w3.org/2000/svg"
 width="512.000000pt" height="512.000000pt" viewBox="0 0 512.000000 512.000000"
 preserveAspectRatio="xMidYMid meet">

<g transform="translate(0.000000,512.000000) scale(0.100000,-0.100000)"
fill="#000000" stroke="none">
<path d="M759 4870 c-8 -5 -129 -180 -268 -389 l-253 -379 4 -179 c3 -176 3
-179 35 -245 42 -90 100 -150 186 -193 38 -19 76 -35 83 -35 12 0 14 -220 14
-1380 l0 -1381 25 -24 24 -25 527 0 528 0 384 -222 c212 -123 403 -231 426
-240 49 -20 110 -23 157 -6 19 6 212 114 430 240 l396 228 527 0 527 0 24 25
25 24 0 1381 c0 1160 2 1380 14 1380 7 0 45 16 83 35 86 43 144 103 186 193
32 66 32 69 35 245 l4 179 -253 380 c-139 209 -261 384 -270 389 -23 12 -3579
12 -3600 -1z m3704 -430 l187 -280 -2090 0 -2090 0 187 280 186 280 1717 0
1717 0 186 -280z m-3585 -552 c-3 -90 -8 -121 -25 -153 -45 -86 -117 -129
-213 -129 -73 0 -126 22 -171 71 -52 55 -63 90 -67 211 l-4 112 242 0 242 0
-4 -112z m642 16 c0 -128 -13 -168 -75 -229 -51 -52 -102 -75 -165 -75 -63 0
-114 23 -165 75 -62 61 -75 101 -75 229 l0 96 240 0 240 0 0 -96z m638 -16
c-3 -90 -8 -121 -25 -153 -45 -86 -117 -129 -213 -129 -73 0 -126 22 -171 71
-52 55 -63 90 -67 211 l-4 112 242 0 242 0 -4 -112z m642 16 c0 -53 -5 -115
-12 -138 -16 -55 -99 -138 -154 -154 -94 -28 -169 -8 -239 63 -62 61 -75 101
-75 229 l0 96 240 0 240 0 0 -96z m638 -16 c-3 -90 -8 -121 -25 -153 -45 -86
-117 -129 -213 -129 -73 0 -126 22 -171 71 -52 55 -63 90 -67 211 l-4 112 242
0 242 0 -4 -112z m642 16 c0 -53 -5 -115 -12 -138 -16 -55 -99 -138 -154 -154
-94 -28 -169 -8 -239 63 -62 61 -75 101 -75 229 l0 96 240 0 240 0 0 -96z
m638 -16 c-3 -90 -8 -121 -25 -153 -45 -86 -117 -129 -213 -129 -73 0 -126 22
-171 71 -52 55 -63 90 -67 211 l-4 112 242 0 242 0 -4 -112z m-3727 -324 c96
-104 262 -148 400 -108 65 19 110 45 167 98 l43 39 37 -35 c55 -52 91 -74 160
-97 140 -48 283 -14 400 93 l43 39 37 -35 c55 -52 91 -74 160 -97 140 -48 283
-14 400 93 l43 39 37 -35 c55 -52 91 -74 160 -97 140 -48 283 -14 400 93 l43
39 37 -35 c55 -52 91 -74 160 -97 140 -47 283 -14 400 93 l42 39 45 -42 c43
-39 154 -101 183 -101 9 0 12 -272 12 -1325 l0 -1325 -332 0 -333 0 52 30 c28
16 63 45 77 63 58 76 56 47 56 790 l0 683 -25 50 c-14 28 -35 60 -48 72 -12
12 -287 174 -611 361 -626 362 -632 364 -726 345 -30 -7 -242 -124 -630 -348
-322 -186 -596 -347 -609 -359 -13 -12 -34 -44 -47 -72 l-24 -50 0 -685 0
-685 24 -50 c27 -57 52 -82 116 -119 l45 -26 -332 0 -333 0 0 1325 c0 1113 2
1325 14 1325 28 0 152 70 185 104 19 20 38 36 41 36 4 0 17 -12 31 -26z m2157
-850 c312 -180 577 -337 590 -351 l22 -24 0 -659 0 -659 -22 -24 c-13 -14
-275 -170 -583 -347 -446 -258 -567 -323 -595 -323 -28 0 -154 69 -600 326
-311 180 -573 337 -582 348 -17 20 -18 67 -18 679 0 612 1 659 18 679 24 30
1152 680 1180 680 13 1 273 -143 590 -325z"/>
<path d="M2485 2730 c-94 -55 -85 57 -85 -1057 l0 -984 25 -24 c32 -33 78 -33
110 0 l25 24 0 436 0 435 155 0 c152 0 156 1 180 25 16 15 25 36 25 55 0 19
-9 40 -25 55 -24 24 -28 25 -180 25 l-155 0 0 430 c0 237 3 430 6 430 4 0 69
-36 145 -80 156 -91 192 -99 228 -54 27 34 27 67 -1 98 -32 35 -350 216 -379
215 -13 0 -46 -13 -74 -29z"/>
<path d="M2069 2421 l-24 -19 -5 -528 -5 -527 -165 412 c-106 267 -172 418
-185 427 -30 22 -73 17 -100 -11 l-25 -24 0 -551 0 -551 25 -24 c29 -30 74
-32 106 -6 l24 19 5 328 5 327 165 -412 c106 -267 172 -418 185 -427 30 -22
73 -17 100 11 l25 24 0 751 0 751 -25 24 c-29 30 -74 32 -106 6z"/>
<path d="M3071 2414 c-59 -50 -38 -101 64 -159 l65 -36 0 -605 0 -605 25 -24
c32 -33 78 -33 110 0 l25 24 0 556 c0 305 3 555 6 555 4 0 32 -16 64 -35 72
-44 119 -47 149 -9 27 34 27 67 -1 98 -27 30 -434 266 -459 266 -10 0 -31 -12
-48 -26z"/>
</g>
</svg>
